<svg viewBox="0 0 30 30" xml:space="preserve" xmlns="http://www.w3.org/2000/svg" enable-background="new 0 0 30 30"><path d="M28.006 13.209c-.312-.595-.665-1.269-.912-2.031-.242-.745-.365-1.523-.475-2.211-.192-1.214-.358-2.264-1.109-2.724-.457-.28-1.059-.292-1.843-.039-2.424.788-5.138 5.539-5.975 7.099a3.056 3.056 0 0 0-1.916-1.597c1.353-1.43 4.757-5.271 4.757-7.722 0-.881-.188-1.45-.592-1.79-.6-.506-1.468-.359-2.566-.171-.661.112-1.411.24-2.213.24-.783 0-1.562-.124-2.25-.232-1.214-.191-2.263-.358-2.932.215-.408.348-.606.917-.606 1.74 0 2.451 3.404 6.292 4.757 7.722a3.054 3.054 0 0 0-1.909 1.584c-.889-1.645-3.547-6.237-5.928-7.01-.836-.272-1.436-.269-1.884.009-.667.414-.795 1.285-.957 2.388-.097.664-.208 1.417-.455 2.179-.242.745-.6 1.448-.917 2.068-.558 1.095-1.041 2.042-.704 2.855.205.496.686.86 1.468 1.115.352.114.758.164 1.201.164 2.631 0 6.524-1.773 7.849-2.416a3.04 3.04 0 0 0 1.118 2.341c-1.218.204-7.32 1.326-8.936 3.548-.518.713-.7 1.283-.574 1.796.188.763.977 1.153 1.976 1.647.602.298 1.283.636 1.932 1.106.634.461 1.191 1.019 1.684 1.511.832.832 1.555 1.556 2.385 1.556.037 0 .075-.002.112-.005.535-.042 1.029-.386 1.513-1.052 1.644-2.262.766-8.597.604-9.665.381.171.8.271 1.244.271.505 0 .975-.135 1.396-.353-.144.932-1.069 7.406.598 9.7.518.712 1.004 1.062 1.53 1.101.033.002.065.003.099.003.736 0 1.332-.609 2.078-1.373.47-.48 1.001-1.024 1.649-1.496.633-.46 1.336-.817 1.956-1.133 1.096-.559 2.042-1.04 2.248-1.896.125-.521-.049-1.099-.533-1.765-1.645-2.264-7.951-3.387-9.009-3.561a3.037 3.037 0 0 0 1.047-2.285c0-.036-.009-.069-.01-.104 1.259.615 5.238 2.447 7.913 2.447.442 0 .85-.05 1.202-.164.837-.272 1.32-.627 1.52-1.116.295-.727-.114-1.507-.631-2.494zM12.458 26.621c-.333.459-.646.702-.928.725-.53.055-1.14-.59-1.869-1.318-.513-.514-1.095-1.095-1.779-1.592-.704-.512-1.417-.865-2.047-1.177-.781-.387-1.455-.721-1.554-1.122-.063-.259.086-.641.444-1.134 1.219-1.678 6.027-2.815 8.231-3.199.318 2.215.722 7.139-.498 8.817zm12.869-5.665c.333.458.468.831.401 1.107-.119.497-.913.901-1.833 1.37-.646.329-1.379.702-2.063 1.199-.703.511-1.26 1.08-1.751 1.583-.609.624-1.127 1.135-1.547 1.132-.266-.02-.582-.279-.941-.773-1.219-1.678-.814-6.603-.498-8.817 2.205.383 7.012 1.521 8.232 3.199zM10.5 2.854c.174-.149.447-.203.786-.203.418 0 .939.083 1.502.172.716.114 1.528.242 2.375.242.869 0 1.654-.134 2.348-.251.858-.146 1.6-.271 1.916-.006.204.172.307.569.307 1.179 0 2.073-3.221 5.821-4.779 7.426-1.559-1.605-4.779-5.353-4.779-7.426-.002-.568.107-.948.324-1.133zm-7.407 13.28c-.539-.175-.867-.396-.976-.659-.196-.473.209-1.267.677-2.186.33-.646.703-1.379.964-2.184.269-.827.384-1.615.486-2.31.127-.862.236-1.606.588-1.824a.734.734 0 0 1 .389-.09c.218 0 .494.054.827.162 1.972.641 4.54 4.862 5.585 6.841-2.008.986-6.565 2.898-8.54 2.25zm11.86.762c-1.245 0-2.258-1.012-2.258-2.257s1.013-2.258 2.258-2.258 2.258 1.013 2.258 2.258-1.013 2.257-2.258 2.257zm12.942-1.495c-.101.247-.446.468-1.026.656-1.968.645-6.529-1.263-8.539-2.25 1.045-1.978 3.612-6.199 5.586-6.84.538-.175.937-.189 1.177-.04.437.268.576 1.147.737 2.167.113.716.242 1.528.503 2.333.269.827.639 1.532.965 2.155.403.77.753 1.436.597 1.819z" fill="#e2808a" class="fill-000000"></path><path d="m15.22 6.102 1.076-.964a.4.4 0 1 0-.534-.596l-1.076.964a.4.4 0 1 0 .534.596zM15.062 4.09a.401.401 0 0 0-.565-.031l-1.076.965a.4.4 0 1 0 .534.596l1.076-.965a.4.4 0 0 0 .031-.565zM25.135 11.756l-1.076.964a.4.4 0 1 0 .534.596l1.076-.964a.4.4 0 1 0-.534-.596zM24.435 11.305a.4.4 0 0 0-.564-.031l-1.076.965a.4.4 0 1 0 .534.596l1.076-.965a.402.402 0 0 0 .03-.565zM20.521 23.514a.4.4 0 0 0 .566.03l1.075-.965a.4.4 0 1 0-.535-.595l-1.075.965a.401.401 0 0 0-.031.565zM19.554 23.164c.096 0 .19-.034.267-.103l1.076-.965a.398.398 0 0 0 .031-.564.396.396 0 0 0-.564-.031l-1.076.965a.398.398 0 0 0-.031.564.393.393 0 0 0 .297.134zM10.677 22.225l-1.075.965a.4.4 0 1 0 .534.595l1.075-.965a.4.4 0 1 0-.534-.595zM9.977 21.773a.398.398 0 0 0-.565-.031l-1.076.965a.399.399 0 1 0 .534.595l1.076-.965a.398.398 0 0 0 .031-.564zM6.653 11.274l-1.076.965a.4.4 0 1 0 .534.596l1.076-.965a.4.4 0 1 0-.534-.596zM5.954 10.822a.4.4 0 0 0-.565-.031l-1.076.965a.4.4 0 1 0 .534.596l1.076-.965a.401.401 0 0 0 .031-.565z" fill="#e2808a" class="fill-000000"></path></svg>